<?xml version="1.0" encoding="utf-8"?>
<!-- Generator: Adobe Illustrator 17.1.0, SVG Export Plug-In . SVG Version: 6.00 Build 0)  -->
<!DOCTYPE svg PUBLIC "-//W3C//DTD SVG 1.1//EN" "http://www.w3.org/Graphics/SVG/1.1/DTD/svg11.dtd">
<svg version="1.1" id="Layer_1" xmlns="http://www.w3.org/2000/svg" xmlns:xlink="http://www.w3.org/1999/xlink" x="0px" y="0px"
	 viewBox="0 0 30 30" enable-background="new 0 0 30 30" xml:space="preserve">
<circle cx="15" cy="14.9" r="14.2"/>
<g>
	<path fill="#FFFFFF" d="M11.2,12.8c-0.7-0.8-1.1-1.8-1.1-2.9c0-2.4,2-4.4,4.4-4.4s4.4,2,4.4,4.4c0,0.3-0.3,0.6-0.6,0.6
		s-0.6-0.3-0.6-0.6c0-1.7-1.4-3.1-3.1-3.1s-3.1,1.4-3.1,3.1c0,1,0.5,2,1.3,2.5c0.2,0.2,0.3,0.5,0.2,0.8c0,0.1-0.1,0.2-0.2,0.3
		c-0.1,0.1-0.1,0.1-0.2,0.1c-1.5,0.8-2.5,2.3-2.5,4.2c0,2.6,2.1,4.7,4.7,4.7s4.7-2.1,4.7-4.7c0-0.4-0.1-0.7-0.1-1.1
		c-0.3-0.1-0.5-0.1-0.8-0.1c-1.7,0-2.5,0.4-2.9,0.8s-0.5,0.9-0.5,1.3c0,0.3,0.1,0.4,0.1,0.5c0.1,0.4-0.1,0.7-0.4,0.8
		c-0.1,0-0.1,0-0.2,0c-0.3,0-0.5-0.2-0.6-0.4c0,0-0.1-0.4-0.1-0.9c0-0.6,0.2-1.5,0.9-2.2c0.7-0.7,1.9-1.2,3.8-1.2
		c0.3,0,0.6,0,0.9,0.1h0.2h0.1h0.2c0.3-0.1,0.5-0.2,0.7-0.3c0.2-0.2,0.4-0.4,0.4-1c0-0.2,0-0.4-0.1-0.7c-0.1-0.3,0.1-0.7,0.5-0.8
		s0.7,0.2,0.8,0.5c0.1,0.4,0.1,0.7,0.1,1c0.1,0.9-0.3,1.6-0.9,2c-0.3,0.2-0.5,0.3-0.8,0.4c0.1,0.4,0.1,0.8,0.1,1.2c0,3.3-2.7,6-6,6
		s-6-2.7-6-6C8.6,15.7,9.7,13.9,11.2,12.8z"/>
</g>
</svg>
