<?xml version="1.0" encoding="utf-8"?>
<!-- Generator: Adobe Illustrator 17.1.0, SVG Export Plug-In . SVG Version: 6.00 Build 0)  -->
<!DOCTYPE svg PUBLIC "-//W3C//DTD SVG 1.1//EN" "http://www.w3.org/Graphics/SVG/1.1/DTD/svg11.dtd">
<svg version="1.1" id="Layer_1" xmlns="http://www.w3.org/2000/svg" xmlns:xlink="http://www.w3.org/1999/xlink" x="0px" y="0px"
	 viewBox="0 0 30 30" enable-background="new 0 0 30 30" xml:space="preserve">
<circle cx="15" cy="14.9" r="14.2"/>
<g>
	<path fill="#FFFFFF" d="M13.2,24.7L13.2,24.7c-3.8-1-4.5-2.5-4.5-4.9v-1.7c0-1.6-0.4-2.6-2.6-2.6c-0.6,0-0.7-0.5-0.7-0.6
		c0-0.3,0.3-0.6,0.7-0.6c2.2,0,2.6-1,2.6-2.6V10c0-2.4,0.7-3.9,4.6-4.6c0,0,0,0,0,0C13.7,5.4,14,5.6,14,6c0,0.3-0.2,0.5-0.4,0.6
		C10.4,7.2,10.1,8,10.1,10v1.7c0,1.7-0.6,2.7-1.9,3.2c1.2,0.5,1.9,1.3,1.9,3.2v1.7c0,2,0.3,2.8,3.4,3.7c0,0,0,0,0,0
		c0.2,0,0.4,0.3,0.4,0.6C13.9,24.3,13.8,24.7,13.2,24.7L13.2,24.7z"/>
	<path fill="#FFFFFF" d="M8.9,19.8v-1.7c0-1.7-0.5-2.8-2.8-2.8c-0.4,0-0.5-0.2-0.5-0.4s0.2-0.4,0.5-0.4c2.3,0,2.8-1.1,2.8-2.8V10
		c0-2.3,0.7-3.7,4.4-4.4c0.2,0,0.5,0.1,0.5,0.4c0,0.2-0.1,0.3-0.3,0.4C10.3,7,9.9,7.8,9.9,10v1.7c0,2-0.9,2.8-2.3,3.2
		c1.5,0.5,2.3,1.2,2.3,3.2v1.7c0,2.2,0.4,3,3.5,3.9c0.1,0,0.3,0.2,0.3,0.4c0,0.3-0.2,0.4-0.5,0.4C9.6,23.5,8.9,22.1,8.9,19.8z"/>
	<path fill="#FFFFFF" d="M16.6,24.7c-0.3,0-0.7-0.2-0.7-0.6c0-0.3,0.2-0.5,0.4-0.6c3.1-0.8,3.4-1.6,3.4-3.7v-1.7
		c0-1.7,0.6-2.7,1.9-3.2c-1.2-0.5-1.9-1.3-1.9-3.2V10c0-2-0.3-2.5-3.4-3.4c0,0,0,0,0,0c-0.2,0-0.4-0.3-0.4-0.6
		c0-0.2,0.1-0.6,0.7-0.6c3.9,1.2,4.6,2.5,4.6,4.8v1.7c0,1.6,0.4,2.6,2.6,2.6c0.4,0,0.7,0.2,0.7,0.6c0,0.3-0.3,0.6-0.7,0.6
		c-2.2,0-2.6,1-2.6,2.6v1.8C21.2,22.5,20.5,24,16.6,24.7L16.6,24.7L16.6,24.7z"/>
	<path fill="#FFFFFF" d="M21,10.2v1.7c0,1.7,0.5,2.8,2.8,2.8c0.4,0,0.5,0.2,0.5,0.4s-0.2,0.4-0.5,0.4c-2.3,0-2.8,1.1-2.8,2.8v1.8
		c0,2.3-0.7,3.7-4.4,4.4c-0.2,0-0.5-0.1-0.5-0.4c0-0.2,0.1-0.3,0.3-0.4c3.2-0.8,3.5-1.7,3.5-3.9v-1.7c0-2,0.9-2.8,2.3-3.2
		c-1.5-0.5-2.3-1.2-2.3-3.2V10c0-2.2-0.4-2.8-3.5-3.7c-0.1,0-0.3-0.2-0.3-0.4c0-0.3,0.2-0.4,0.5-0.4C20.3,6.7,21,7.9,21,10.2z"/>
</g>
</svg>
