<?xml version="1.0" encoding="utf-8"?>
<!-- Generator: Adobe Illustrator 17.1.0, SVG Export Plug-In . SVG Version: 6.00 Build 0)  -->
<!DOCTYPE svg PUBLIC "-//W3C//DTD SVG 1.1//EN" "http://www.w3.org/Graphics/SVG/1.1/DTD/svg11.dtd">
<svg version="1.1" id="Layer_1" xmlns="http://www.w3.org/2000/svg" xmlns:xlink="http://www.w3.org/1999/xlink" x="0px" y="0px"
	 viewBox="0 0 30 30" enable-background="new 0 0 30 30" xml:space="preserve">
<path fill="#FFFFFF" d="M0.6,15c0-1.4,0-2.8,0-4.2c0-0.6,0.2-1,0.7-1.4c4.3-2.9,8.6-5.7,12.9-8.6c0.6-0.4,1.1-0.4,1.7,0
	c4.3,2.9,8.6,5.7,12.9,8.6c0.5,0.3,0.7,0.8,0.7,1.4c0,2.8,0,5.6,0,8.4c0,0.6-0.2,1-0.7,1.3c-4.3,2.9-8.6,5.7-12.9,8.6
	c-0.6,0.4-1.1,0.4-1.7,0c-4.3-2.9-8.6-5.7-12.9-8.6c-0.5-0.3-0.7-0.7-0.7-1.3C0.6,17.8,0.6,16.4,0.6,15z M13.8,4.1
	C10.5,6.3,7.3,8.4,4,10.6c1.4,1,2.8,1.9,4.2,2.8c0.1,0.1,0.3,0,0.3,0c1.7-1.1,3.3-2.2,5-3.3c0.1-0.1,0.2-0.2,0.2-0.3
	C13.8,7.9,13.8,6.1,13.8,4.1z M16.3,4.2c0,0.1,0,0.2,0,0.2c0,1.8,0,3.5,0,5.3c0,0.1,0.1,0.3,0.3,0.4c1.6,1.1,3.2,2.2,4.9,3.3
	c0.2,0.1,0.3,0.1,0.5,0c0.7-0.5,1.5-1,2.2-1.5c0.6-0.4,1.2-0.8,1.9-1.3C22.7,8.4,19.5,6.3,16.3,4.2z M4,19.4
	c3.2,2.2,6.4,4.3,9.6,6.4c0-0.1,0.1-0.1,0.1-0.1c0-1.8,0-3.6,0-5.4c0-0.1-0.1-0.3-0.2-0.3c-1.6-1.1-3.3-2.2-4.9-3.3
	c-0.1-0.1-0.3-0.1-0.4,0C7.6,17,7,17.4,6.5,17.8C5.7,18.3,4.9,18.8,4,19.4z M26,19.4c-1.4-1-2.8-1.9-4.2-2.8c-0.1-0.1-0.3,0-0.4,0.1
	c-1.6,1.1-3.2,2.2-4.8,3.2c-0.2,0.1-0.3,0.3-0.3,0.5c0,1.7,0,3.3,0,5c0,0.1,0,0.2,0,0.4C19.5,23.7,22.7,21.6,26,19.4z M10.6,15
	c1.4,1,2.8,1.9,4.2,2.8c0.1,0.1,0.3,0,0.4-0.1c1.1-0.7,2.1-1.4,3.1-2.1c0.3-0.2,0.6-0.4,1-0.6c-1.4-1-2.8-1.9-4.2-2.8
	c-0.1-0.1-0.3-0.1-0.4,0C13.4,13.1,12.1,14,10.6,15z M6.2,15c-1-0.7-2-1.4-3.1-2c0,1.4,0,2.7,0,4.1C4.1,16.4,5.1,15.7,6.2,15z
	 M26.9,17c0-1.4,0-2.7,0-4.1c-1,0.7-2,1.4-3.1,2C24.9,15.7,25.9,16.4,26.9,17z"/>
</svg>
