<?xml version="1.0" encoding="utf-8"?>
<!-- Generator: Adobe Illustrator 17.1.0, SVG Export Plug-In . SVG Version: 6.00 Build 0)  -->
<!DOCTYPE svg PUBLIC "-//W3C//DTD SVG 1.1//EN" "http://www.w3.org/Graphics/SVG/1.1/DTD/svg11.dtd">
<svg version="1.1" id="Layer_1" xmlns="http://www.w3.org/2000/svg" xmlns:xlink="http://www.w3.org/1999/xlink" x="0px" y="0px"
	 viewBox="0 0 30 30" enable-background="new 0 0 30 30" xml:space="preserve">
<g>
	<circle cx="15" cy="15" r="14.2"/>
	<g>
		<path fill="#FFFFFF" d="M14.3,16.1L9,19.7c-0.4,0.2-0.6,0.4-0.9,0.4c-0.6,0-1.2-0.6-1.2-1.2c0-0.5,0.4-0.9,0.8-1.1l6-2.9l-6-2.9
			c-0.5-0.2-0.8-0.6-0.8-1.1c0-0.6,0.5-1.2,1.2-1.2c0.4,0,0.6,0.1,0.9,0.4l5.3,3.6l-0.5-6.4C13.7,6.6,14.3,6,15,6s1.2,0.6,1.2,1.3
			l-0.5,6.4l5.3-3.6c0.4-0.2,0.6-0.4,0.9-0.4c0.6,0,1.2,0.6,1.2,1.2s-0.4,0.9-0.8,1.1l-6,2.9l6,2.9c0.4,0.2,0.8,0.5,0.8,1.1
			s-0.5,1.2-1.2,1.2c-0.4,0-0.6-0.1-0.9-0.4l-5.3-3.6l0.5,6.4c0.1,0.7-0.5,1.3-1.2,1.3s-1.2-0.6-1.2-1.3L14.3,16.1z"/>
	</g>
</g>
</svg>
