<?xml version="1.0" encoding="utf-8"?>
<!-- Generated by IcoMoon.io -->
<!DOCTYPE svg PUBLIC "-//W3C//DTD SVG 1.1//EN" "http://www.w3.org/Graphics/SVG/1.1/DTD/svg11.dtd">
<svg version="1.1" xmlns="http://www.w3.org/2000/svg" xmlns:xlink="http://www.w3.org/1999/xlink" width="50" height="50" viewBox="0 0 50 50">
<g>
</g>
	<path d="M25 0c-13.807 0-25 11.193-25 25s11.193 25 25 25 25-11.193 25-25-11.193-25-25-25zM39.367 17.631c0.014 0.318 0.022 0.637 0.022 0.959 0 9.796-7.456 21.092-21.092 21.092-4.186 0-8.083-1.227-11.364-3.331 0.58 0.069 1.17 0.104 1.768 0.104 3.473 0 6.669-1.185 9.207-3.174-3.244-0.060-5.981-2.203-6.925-5.148 0.453 0.086 0.917 0.133 1.395 0.133 0.676 0 1.331-0.091 1.953-0.26-3.391-0.681-5.947-3.677-5.947-7.269 0-0.031 0-0.062 0.001-0.093 1 0.555 2.142 0.889 3.358 0.927-1.989-1.329-3.298-3.598-3.298-6.17 0-1.358 0.366-2.632 1.004-3.727 3.656 4.485 9.119 7.436 15.279 7.746-0.126-0.543-0.192-1.108-0.192-1.69 0-4.094 3.319-7.413 7.413-7.413 2.132 0 4.059 0.9 5.411 2.341 1.688-0.332 3.275-0.949 4.708-1.799-0.554 1.731-1.729 3.184-3.259 4.101 1.5-0.179 2.928-0.578 4.258-1.167-0.994 1.487-2.25 2.792-3.699 3.838z" fill="#000000" />
</svg>
