<?xml version="1.0" encoding="utf-8"?>
<!-- Generator: Adobe Illustrator 17.1.0, SVG Export Plug-In . SVG Version: 6.00 Build 0)  -->
<!DOCTYPE svg PUBLIC "-//W3C//DTD SVG 1.1//EN" "http://www.w3.org/Graphics/SVG/1.1/DTD/svg11.dtd">
<svg version="1.1" id="Layer_1" xmlns="http://www.w3.org/2000/svg" xmlns:xlink="http://www.w3.org/1999/xlink" x="0px" y="0px"
	 viewBox="0 0 30 30" enable-background="new 0 0 30 30" xml:space="preserve">
<path d="M0.3,15.6c0-0.5,0-1,0-1.5c0-0.1,0-0.2,0.1-0.3c0.1-2,0.6-3.8,1.6-5.6c2.4-4.4,6-7.1,11-7.9c0.5-0.1,0.9-0.1,1.4-0.2
	c0.5,0,1,0,1.5,0c0.1,0,0.2,0,0.3,0.1c0.6,0.1,1.2,0.1,1.8,0.2C26,2,31.2,10.1,29.3,18.1c-2.2,9.3-12.5,14.2-21,9.8
	c-4.5-2.3-7.1-6-7.9-11C0.4,16.5,0.3,16.1,0.3,15.6z M23.9,5c-3.5-3-7.4-4.1-11.8-3.1C8.7,2.7,6,4.6,3.9,7.6c0.7,0,1.4,0,2,0
	c0.8,0,1.6-0.1,2.4-0.1c0.3,0,0.5,0.2,0.6,0.5c0,0.3-0.1,0.5-0.5,0.6c-0.1,0-0.3,0-0.4,0c-0.4,0-0.7,0.1-1.1,0.1
	c1.6,4.8,3.2,9.5,4.8,14.3c0.1-0.1,0.1-0.1,0.1-0.2c0.9-2.8,1.9-5.6,2.8-8.4c0-0.1,0-0.2,0-0.3c-0.6-1.8-1.3-3.5-1.9-5.3
	c-0.1-0.2-0.2-0.2-0.3-0.2c-0.4,0-0.8-0.1-1.2-0.1c-0.3,0-0.4-0.2-0.4-0.5c0-0.3,0.2-0.5,0.5-0.5c0.1,0,0.3,0,0.4,0
	c1.4,0,2.9,0.1,4.3,0.1c0.8,0,1.5-0.1,2.3-0.1c0.3,0,0.6,0.2,0.6,0.5c0,0.3-0.1,0.5-0.5,0.6c-0.1,0-0.3,0-0.4,0
	c-0.4,0-0.7,0.1-1.1,0.1c1.6,4.8,3.2,9.5,4.8,14.2c0-0.1,0.1-0.1,0.1-0.1c0.7-2.2,1.3-4.4,2-6.6c0.5-1.7,0.4-3.4-0.5-5
	c-0.3-0.6-0.6-1.1-1-1.7c-0.3-0.5-0.5-1.1-0.6-1.7c-0.1-1.1,0.6-2.2,1.6-2.5C23.4,5.1,23.6,5.1,23.9,5z M15.3,16.1
	C15.2,16.1,15.2,16.1,15.3,16.1c-1.4,3.8-2.7,7.6-4,11.5c2.8,0.8,5.5,0.7,8.1-0.2C18,23.6,16.6,19.8,15.3,16.1z M2.9,9.5
	C2.9,9.5,2.9,9.5,2.9,9.5c-1.6,3.6-1.6,7.1-0.1,10.7c1.3,2.9,3.4,5.1,6.3,6.6c0,0,0,0,0.1,0C7.1,21,5,15.2,2.9,9.5z M21.7,26.2
	c3.4-2,5.5-5,6.3-8.8c0.6-2.8-0.2-7.7-1.4-8.8c0.1,1,0.1,1.9-0.1,2.9c-0.2,1.1-0.5,2.2-0.9,3.2c-1.3,3.7-2.6,7.4-3.9,11.2
	C21.7,26,21.7,26.1,21.7,26.2z"/>
</svg>
