<?xml version="1.0" encoding="utf-8"?>
<!-- Generator: Adobe Illustrator 17.1.0, SVG Export Plug-In . SVG Version: 6.00 Build 0)  -->
<!DOCTYPE svg PUBLIC "-//W3C//DTD SVG 1.1//EN" "http://www.w3.org/Graphics/SVG/1.1/DTD/svg11.dtd">
<svg version="1.1" id="Layer_1" xmlns="http://www.w3.org/2000/svg" xmlns:xlink="http://www.w3.org/1999/xlink" x="0px" y="0px"
	 viewBox="0 0 30 30" enable-background="new 0 0 30 30" xml:space="preserve">
<path fill-rule="evenodd" clip-rule="evenodd" fill="#FFFFFF" d="M15.1,0.6C7,0.6,0.5,7.1,0.5,15.2c0,6.4,4.2,11.9,10,13.8
	c0.7,0.1,1-0.3,1-0.7c0-0.3,0-1.3,0-2.5c-4.1,0.9-4.9-2-4.9-2c-0.7-1.7-1.6-2.1-1.6-2.1C3.6,20.8,5,20.8,5,20.8
	c1.5,0.1,2.2,1.5,2.2,1.5c1.3,2.2,3.4,1.6,4.2,1.2c0.1-0.9,0.5-1.6,0.9-1.9c-3.2-0.4-6.6-1.6-6.6-7.2c0-1.6,0.6-2.9,1.5-3.9
	c-0.1-0.4-0.6-1.9,0.1-3.9c0,0,1.2-0.4,4,1.5c1.2-0.3,2.4-0.5,3.6-0.5c1.2,0,2.5,0.2,3.6,0.5c2.8-1.9,4-1.5,4-1.5
	c0.8,2,0.3,3.5,0.1,3.9c0.9,1,1.5,2.3,1.5,3.9c0,5.6-3.4,6.8-6.7,7.2c0.5,0.4,1,1.3,1,2.7c0,1.9,0,3.5,0,4c0,0.4,0.3,0.8,1,0.7
	c5.8-1.9,10-7.4,10-13.8C29.6,7.1,23.1,0.6,15.1,0.6z"/>
</svg>
