<?xml version="1.0" encoding="utf-8"?>
<!-- Generator: Adobe Illustrator 17.1.0, SVG Export Plug-In . SVG Version: 6.00 Build 0)  -->
<!DOCTYPE svg PUBLIC "-//W3C//DTD SVG 1.1//EN" "http://www.w3.org/Graphics/SVG/1.1/DTD/svg11.dtd">
<svg version="1.1" id="Layer_1" xmlns="http://www.w3.org/2000/svg" xmlns:xlink="http://www.w3.org/1999/xlink" x="0px" y="0px"
	 viewBox="0 0 40 40" enable-background="new 0 0 40 40" xml:space="preserve">
<path fill="#231F20" d="M39.3,9.1c-1.5,0.7-2.9,1.1-4.5,1.2c1.6-0.9,2.9-2.5,3.5-4.4c-1.5,0.9-3.2,1.6-5.1,1.9
	c-1.5-1.3-3.5-2.4-5.7-2.4c-4.4,0-7.9,3.5-7.9,7.9c0,0.7,0.1,1.2,0.3,1.7c-6.7-0.1-12.4-3.3-16.3-8.1c-0.8,1.2-1.1,2.5-1.1,4
	c0,2.8,1.3,5.2,3.5,6.5c-1.3,0-2.5-0.4-3.6-0.9c0,0,0,0,0,0.1c0,3.9,2.7,7.1,6.3,7.7c-0.7,0.1-1.3,0.3-2.1,0.3c-0.5,0-1.1,0-1.5-0.1
	c1.1,3.1,3.9,5.5,7.3,5.5c-2.7,2.1-6.1,3.3-9.7,3.3c-0.7,0-1.2,0-1.9-0.1c3.5,2.3,7.6,3.6,12.1,3.6c14.5,0,22.4-12,22.4-22.4
	c0-0.4,0-0.7,0-1.1C36.9,12,38.3,10.7,39.3,9.1z"/>
</svg>
