<?xml version="1.0" encoding="utf-8"?>
<!-- Generator: Adobe Illustrator 17.1.0, SVG Export Plug-In . SVG Version: 6.00 Build 0)  -->
<!DOCTYPE svg PUBLIC "-//W3C//DTD SVG 1.1//EN" "http://www.w3.org/Graphics/SVG/1.1/DTD/svg11.dtd">
<svg version="1.1" id="Layer_1" xmlns="http://www.w3.org/2000/svg" xmlns:xlink="http://www.w3.org/1999/xlink" x="0px" y="0px"
	 viewBox="0 0 40 40" enable-background="new 0 0 40 40" xml:space="preserve">
<path fill="#FFFFFF" d="M0.4,20.8c0-0.7,0-1.3,0-2c0-0.1,0-0.3,0.1-0.4c0.1-2.7,0.8-5.1,2.1-7.5c3.2-5.9,8-9.5,14.7-10.5
	c0.7-0.1,1.2-0.1,1.9-0.3c0.7,0,1.3,0,2,0c0.1,0,0.3,0,0.4,0.1c0.8,0.1,1.6,0.1,2.4,0.3c10.7,2.1,17.6,12.9,15.1,23.6
	c-2.9,12.4-16.7,18.9-28,13.1c-6-3.1-9.5-8-10.5-14.7C0.5,22,0.4,21.5,0.4,20.8z M31.9,6.7c-4.7-4-9.9-5.5-15.7-4.1
	C11.6,3.6,8,6.1,5.2,10.1c0.9,0,1.9,0,2.7,0c1.1,0,2.1-0.1,3.2-0.1c0.4,0,0.7,0.3,0.8,0.7c0,0.4-0.1,0.7-0.7,0.8c-0.1,0-0.4,0-0.5,0
	c-0.5,0-0.9,0.1-1.5,0.1c2.1,6.4,4.3,12.7,6.4,19.1c0.1-0.1,0.1-0.1,0.1-0.3c1.2-3.7,2.5-7.5,3.7-11.2c0-0.1,0-0.3,0-0.4
	c-0.8-2.4-1.7-4.7-2.5-7.1c-0.1-0.3-0.3-0.3-0.4-0.3c-0.5,0-1.1-0.1-1.6-0.1c-0.4,0-0.5-0.3-0.5-0.7c0-0.4,0.3-0.7,0.7-0.7
	c0.1,0,0.4,0,0.5,0c1.9,0,3.9,0.1,5.7,0.1c1.1,0,2-0.1,3.1-0.1c0.4,0,0.8,0.3,0.8,0.7c0,0.4-0.1,0.7-0.7,0.8c-0.1,0-0.4,0-0.5,0
	c-0.5,0-0.9,0.1-1.5,0.1c2.1,6.4,4.3,12.7,6.4,18.9c0-0.1,0.1-0.1,0.1-0.1c0.9-2.9,1.7-5.9,2.7-8.8c0.7-2.3,0.5-4.5-0.7-6.7
	c-0.4-0.8-0.8-1.5-1.3-2.3c-0.4-0.7-0.7-1.5-0.8-2.3c-0.1-1.5,0.8-2.9,2.1-3.3C31.2,6.8,31.5,6.8,31.9,6.7z M20.4,21.5
	C20.3,21.5,20.3,21.5,20.4,21.5c-1.9,5.1-3.6,10.1-5.3,15.3c3.7,1.1,7.3,0.9,10.8-0.3C24,31.5,22.1,26.4,20.4,21.5z M3.9,12.7
	L3.9,12.7c-2.1,4.8-2.1,9.5-0.1,14.3c1.7,3.9,4.5,6.8,8.4,8.8c0,0,0,0,0.1,0C9.5,28,6.7,20.3,3.9,12.7z M28.9,34.9
	c4.5-2.7,7.3-6.7,8.4-11.7c0.8-3.7-0.3-10.3-1.9-11.7c0.1,1.3,0.1,2.5-0.1,3.9c-0.3,1.5-0.7,2.9-1.2,4.3c-1.7,4.9-3.5,9.9-5.2,14.9
	C28.9,34.7,28.9,34.8,28.9,34.9z"/>
</svg>
